<?xml version="1.0" encoding="UTF-8" standalone="no"?>
<!DOCTYPE svg PUBLIC "-//W3C//DTD SVG 1.1//EN"
 "http://www.w3.org/Graphics/SVG/1.1/DTD/svg11.dtd">
<!-- Generated by graphviz version 5.0.0 (20220707.1540)
 -->
<!-- Title: dependencies Pages: 1 -->
<svg width="404pt" height="247pt"
 viewBox="0.00 0.00 404.00 246.80" xmlns="http://www.w3.org/2000/svg" xmlns:xlink="http://www.w3.org/1999/xlink">
<g id="graph0" class="graph" transform="scale(1 1) rotate(0) translate(4 242.8)">
<title>dependencies</title>
<polygon fill="white" stroke="transparent" points="-4,4 -4,-242.8 400,-242.8 400,4 -4,4"/>
<text text-anchor="middle" x="198" y="-8.2" font-family="sans-serif" font-size="14.00">dependencies</text>
<g id="clust1" class="cluster">
<title>cluster_KafkaProducerModule</title>
<polygon fill="none" stroke="black" stroke-dasharray="1,5" points="8,-32.8 8,-230.8 388,-230.8 388,-32.8 8,-32.8"/>
</g>
<g id="clust4" class="cluster">
<title>cluster_KafkaProducerModule_exports</title>
<polygon fill="none" stroke="black" points="129,-170.8 129,-222.8 291,-222.8 291,-170.8 129,-170.8"/>
</g>
<g id="clust3" class="cluster">
<title>cluster_KafkaProducerModule_imports</title>
<polygon fill="none" stroke="black" points="236,-40.8 236,-92.8 380,-92.8 380,-40.8 236,-40.8"/>
</g>
<g id="clust6" class="cluster">
<title>cluster_KafkaProducerModule_providers</title>
<polygon fill="none" stroke="black" points="16,-40.8 16,-92.8 228,-92.8 228,-40.8 16,-40.8"/>
</g>
<!-- KafkaClientModule -->
<g id="node1" class="node">
<title>KafkaClientModule</title>
<polygon fill="#8dd3c7" stroke="black" points="371.97,-84.8 368.97,-88.8 347.97,-88.8 344.97,-84.8 244.03,-84.8 244.03,-48.8 371.97,-48.8 371.97,-84.8"/>
<text text-anchor="middle" x="308" y="-62.6" font-family="Times,serif" font-size="14.00">KafkaClientModule</text>
</g>
<!-- KafkaProducerModule -->
<g id="node2" class="node">
<title>KafkaProducerModule</title>
<polygon fill="#8dd3c7" stroke="black" points="282.29,-149.8 279.29,-153.8 258.29,-153.8 255.29,-149.8 137.71,-149.8 137.71,-113.8 282.29,-113.8 282.29,-149.8"/>
<text text-anchor="middle" x="210" y="-127.6" font-family="Times,serif" font-size="14.00">KafkaProducerModule</text>
</g>
<!-- KafkaClientModule&#45;&gt;KafkaProducerModule -->
<g id="edge1" class="edge">
<title>KafkaClientModule&#45;&gt;KafkaProducerModule</title>
<path fill="none" stroke="black" d="M263.08,-84.91C263.08,-84.91 263.08,-103.79 263.08,-103.79"/>
<polygon fill="black" stroke="black" points="259.58,-103.79 263.08,-113.79 266.58,-103.79 259.58,-103.79"/>
</g>
<!-- KafkaProducerService  -->
<g id="node3" class="node">
<title>KafkaProducerService </title>
<polygon fill="#fb8072" stroke="black" points="283.22,-214.8 136.78,-214.8 136.78,-178.8 283.22,-178.8 283.22,-214.8"/>
<text text-anchor="middle" x="210" y="-192.6" font-family="Times,serif" font-size="14.00">KafkaProducerService </text>
</g>
<!-- KafkaProducerModule&#45;&gt;KafkaProducerService  -->
<g id="edge2" class="edge">
<title>KafkaProducerModule&#45;&gt;KafkaProducerService </title>
<path fill="none" stroke="black" stroke-dasharray="5,2" d="M210,-149.91C210,-149.91 210,-168.79 210,-168.79"/>
<polygon fill="black" stroke="black" points="206.5,-168.79 210,-178.79 213.5,-168.79 206.5,-168.79"/>
</g>
<!-- KafkaProducerService -->
<g id="node4" class="node">
<title>KafkaProducerService</title>
<ellipse fill="#fdb462" stroke="black" cx="122" cy="-66.8" rx="98.39" ry="18"/>
<text text-anchor="middle" x="122" y="-62.6" font-family="Times,serif" font-size="14.00">KafkaProducerService</text>
</g>
<!-- KafkaProducerService&#45;&gt;KafkaProducerModule -->
<g id="edge3" class="edge">
<title>KafkaProducerService&#45;&gt;KafkaProducerModule</title>
<path fill="none" stroke="black" d="M179.15,-81.55C179.15,-81.55 179.15,-103.39 179.15,-103.39"/>
<polygon fill="black" stroke="black" points="175.65,-103.39 179.15,-113.39 182.65,-103.39 175.65,-103.39"/>
</g>
</g>
</svg>
