<?xml version="1.0" encoding="UTF-8" standalone="no"?>
<!DOCTYPE svg PUBLIC "-//W3C//DTD SVG 1.1//EN"
 "http://www.w3.org/Graphics/SVG/1.1/DTD/svg11.dtd">
<!-- Generated by graphviz version 5.0.0 (20220707.1540)
 -->
<!-- Title: dependencies Pages: 1 -->
<svg width="682pt" height="247pt"
 viewBox="0.00 0.00 682.00 246.80" xmlns="http://www.w3.org/2000/svg" xmlns:xlink="http://www.w3.org/1999/xlink">
<g id="graph0" class="graph" transform="scale(1 1) rotate(0) translate(4 242.8)">
<title>dependencies</title>
<polygon fill="white" stroke="transparent" points="-4,4 -4,-242.8 678,-242.8 678,4 -4,4"/>
<text text-anchor="middle" x="337" y="-8.2" font-family="sans-serif" font-size="14.00">dependencies</text>
<g id="clust1" class="cluster">
<title>cluster_KafkaConsumerModule</title>
<polygon fill="none" stroke="black" stroke-dasharray="1,5" points="8,-32.8 8,-230.8 666,-230.8 666,-32.8 8,-32.8"/>
</g>
<g id="clust3" class="cluster">
<title>cluster_KafkaConsumerModule_imports</title>
<polygon fill="none" stroke="black" points="246,-40.8 246,-92.8 658,-92.8 658,-40.8 246,-40.8"/>
</g>
<g id="clust4" class="cluster">
<title>cluster_KafkaConsumerModule_exports</title>
<polygon fill="none" stroke="black" points="280,-170.8 280,-222.8 450,-222.8 450,-170.8 280,-170.8"/>
</g>
<g id="clust6" class="cluster">
<title>cluster_KafkaConsumerModule_providers</title>
<polygon fill="none" stroke="black" points="16,-40.8 16,-92.8 238,-92.8 238,-40.8 16,-40.8"/>
</g>
<!-- KafkaClientModule -->
<g id="node1" class="node">
<title>KafkaClientModule</title>
<polygon fill="#8dd3c7" stroke="black" points="649.97,-84.8 646.97,-88.8 625.97,-88.8 622.97,-84.8 522.03,-84.8 522.03,-48.8 649.97,-48.8 649.97,-84.8"/>
<text text-anchor="middle" x="586" y="-62.6" font-family="Times,serif" font-size="14.00">KafkaClientModule</text>
</g>
<!-- KafkaConsumerModule -->
<g id="node4" class="node">
<title>KafkaConsumerModule</title>
<polygon fill="#8dd3c7" stroke="black" points="440.8,-149.8 437.8,-153.8 416.8,-153.8 413.8,-149.8 289.2,-149.8 289.2,-113.8 440.8,-113.8 440.8,-149.8"/>
<text text-anchor="middle" x="365" y="-127.6" font-family="Times,serif" font-size="14.00">KafkaConsumerModule</text>
</g>
<!-- KafkaClientModule&#45;&gt;KafkaConsumerModule -->
<g id="edge1" class="edge">
<title>KafkaClientModule&#45;&gt;KafkaConsumerModule</title>
<path fill="none" stroke="black" d="M586,-84.91C586,-104.14 586,-131.8 586,-131.8 586,-131.8 450.75,-131.8 450.75,-131.8"/>
<polygon fill="black" stroke="black" points="450.75,-128.3 440.75,-131.8 450.75,-135.3 450.75,-128.3"/>
</g>
<!-- KafkaProducerModule -->
<g id="node2" class="node">
<title>KafkaProducerModule</title>
<polygon fill="#8dd3c7" stroke="black" points="504.29,-84.8 501.29,-88.8 480.29,-88.8 477.29,-84.8 359.71,-84.8 359.71,-48.8 504.29,-48.8 504.29,-84.8"/>
<text text-anchor="middle" x="432" y="-62.6" font-family="Times,serif" font-size="14.00">KafkaProducerModule</text>
</g>
<!-- KafkaProducerModule&#45;&gt;KafkaConsumerModule -->
<g id="edge2" class="edge">
<title>KafkaProducerModule&#45;&gt;KafkaConsumerModule</title>
<path fill="none" stroke="black" d="M400.25,-84.91C400.25,-84.91 400.25,-103.79 400.25,-103.79"/>
<polygon fill="black" stroke="black" points="396.75,-103.79 400.25,-113.79 403.75,-103.79 396.75,-103.79"/>
</g>
<!-- LogsModule -->
<g id="node3" class="node">
<title>LogsModule</title>
<polygon fill="#8dd3c7" stroke="black" points="341.55,-84.8 338.55,-88.8 317.55,-88.8 314.55,-84.8 254.45,-84.8 254.45,-48.8 341.55,-48.8 341.55,-84.8"/>
<text text-anchor="middle" x="298" y="-62.6" font-family="Times,serif" font-size="14.00">LogsModule</text>
</g>
<!-- LogsModule&#45;&gt;KafkaConsumerModule -->
<g id="edge3" class="edge">
<title>LogsModule&#45;&gt;KafkaConsumerModule</title>
<path fill="none" stroke="black" d="M315.56,-84.91C315.56,-84.91 315.56,-103.79 315.56,-103.79"/>
<polygon fill="black" stroke="black" points="312.06,-103.79 315.56,-113.79 319.06,-103.79 312.06,-103.79"/>
</g>
<!-- KafkaConsumerService  -->
<g id="node5" class="node">
<title>KafkaConsumerService </title>
<polygon fill="#fb8072" stroke="black" points="441.73,-214.8 288.27,-214.8 288.27,-178.8 441.73,-178.8 441.73,-214.8"/>
<text text-anchor="middle" x="365" y="-192.6" font-family="Times,serif" font-size="14.00">KafkaConsumerService </text>
</g>
<!-- KafkaConsumerModule&#45;&gt;KafkaConsumerService  -->
<g id="edge4" class="edge">
<title>KafkaConsumerModule&#45;&gt;KafkaConsumerService </title>
<path fill="none" stroke="black" stroke-dasharray="5,2" d="M365,-149.91C365,-149.91 365,-168.79 365,-168.79"/>
<polygon fill="black" stroke="black" points="361.5,-168.79 365,-178.79 368.5,-168.79 361.5,-168.79"/>
</g>
<!-- KafkaConsumerService -->
<g id="node6" class="node">
<title>KafkaConsumerService</title>
<ellipse fill="#fdb462" stroke="black" cx="127" cy="-66.8" rx="103.06" ry="18"/>
<text text-anchor="middle" x="127" y="-62.6" font-family="Times,serif" font-size="14.00">KafkaConsumerService</text>
</g>
<!-- KafkaConsumerService&#45;&gt;KafkaConsumerModule -->
<g id="edge5" class="edge">
<title>KafkaConsumerService&#45;&gt;KafkaConsumerModule</title>
<path fill="none" stroke="black" d="M127,-84.91C127,-104.14 127,-131.8 127,-131.8 127,-131.8 279.04,-131.8 279.04,-131.8"/>
<polygon fill="black" stroke="black" points="279.04,-135.3 289.04,-131.8 279.04,-128.3 279.04,-135.3"/>
</g>
</g>
</svg>
