<?xml version="1.0" encoding="UTF-8" standalone="no"?>
<!DOCTYPE svg PUBLIC "-//W3C//DTD SVG 1.1//EN"
 "http://www.w3.org/Graphics/SVG/1.1/DTD/svg11.dtd">
<!-- Generated by graphviz version 5.0.0 (20220707.1540)
 -->
<!-- Title: dependencies Pages: 1 -->
<svg width="900pt" height="174pt"
 viewBox="0.00 0.00 900.00 173.80" xmlns="http://www.w3.org/2000/svg" xmlns:xlink="http://www.w3.org/1999/xlink">
<g id="graph0" class="graph" transform="scale(1 1) rotate(0) translate(4 169.8)">
<title>dependencies</title>
<polygon fill="white" stroke="transparent" points="-4,4 -4,-169.8 896,-169.8 896,4 -4,4"/>
<text text-anchor="middle" x="446" y="-8.2" font-family="sans-serif" font-size="14.00">dependencies</text>
<g id="clust1" class="cluster">
<title>cluster_AppModule</title>
<polygon fill="none" stroke="black" stroke-dasharray="1,5" points="8,-32.8 8,-157.8 884,-157.8 884,-32.8 8,-32.8"/>
</g>
<g id="clust6" class="cluster">
<title>cluster_AppModule_providers</title>
<polygon fill="none" stroke="black" points="746,-40.8 746,-92.8 876,-92.8 876,-40.8 746,-40.8"/>
</g>
<g id="clust3" class="cluster">
<title>cluster_AppModule_imports</title>
<polygon fill="none" stroke="black" points="16,-40.8 16,-92.8 738,-92.8 738,-40.8 16,-40.8"/>
</g>
<!-- AppConfigModule -->
<g id="node1" class="node">
<title>AppConfigModule</title>
<polygon fill="#8dd3c7" stroke="black" points="730.05,-84.8 727.05,-88.8 706.05,-88.8 703.05,-84.8 607.95,-84.8 607.95,-48.8 730.05,-48.8 730.05,-84.8"/>
<text text-anchor="middle" x="669" y="-62.6" font-family="Times,serif" font-size="14.00">AppConfigModule</text>
</g>
<!-- AppModule -->
<g id="node6" class="node">
<title>AppModule</title>
<polygon fill="#8dd3c7" stroke="black" points="488.66,-149.8 485.66,-153.8 464.66,-153.8 461.66,-149.8 405.34,-149.8 405.34,-113.8 488.66,-113.8 488.66,-149.8"/>
<text text-anchor="middle" x="447" y="-127.6" font-family="Times,serif" font-size="14.00">AppModule</text>
</g>
<!-- AppConfigModule&#45;&gt;AppModule -->
<g id="edge1" class="edge">
<title>AppConfigModule&#45;&gt;AppModule</title>
<path fill="none" stroke="black" d="M669,-84.82C669,-102.17 669,-125.8 669,-125.8 669,-125.8 498.76,-125.8 498.76,-125.8"/>
<polygon fill="black" stroke="black" points="498.76,-122.3 488.76,-125.8 498.76,-129.3 498.76,-122.3"/>
</g>
<!-- KafkaClientModule -->
<g id="node2" class="node">
<title>KafkaClientModule</title>
<polygon fill="#8dd3c7" stroke="black" points="589.97,-84.8 586.97,-88.8 565.97,-88.8 562.97,-84.8 462.03,-84.8 462.03,-48.8 589.97,-48.8 589.97,-84.8"/>
<text text-anchor="middle" x="526" y="-62.6" font-family="Times,serif" font-size="14.00">KafkaClientModule</text>
</g>
<!-- KafkaClientModule&#45;&gt;AppModule -->
<g id="edge2" class="edge">
<title>KafkaClientModule&#45;&gt;AppModule</title>
<path fill="none" stroke="black" d="M475.42,-84.91C475.42,-84.91 475.42,-103.79 475.42,-103.79"/>
<polygon fill="black" stroke="black" points="471.92,-103.79 475.42,-113.79 478.92,-103.79 471.92,-103.79"/>
</g>
<!-- KafkaConsumerModule -->
<g id="node3" class="node">
<title>KafkaConsumerModule</title>
<polygon fill="#8dd3c7" stroke="black" points="443.8,-84.8 440.8,-88.8 419.8,-88.8 416.8,-84.8 292.2,-84.8 292.2,-48.8 443.8,-48.8 443.8,-84.8"/>
<text text-anchor="middle" x="368" y="-62.6" font-family="Times,serif" font-size="14.00">KafkaConsumerModule</text>
</g>
<!-- KafkaConsumerModule&#45;&gt;AppModule -->
<g id="edge3" class="edge">
<title>KafkaConsumerModule&#45;&gt;AppModule</title>
<path fill="none" stroke="black" d="M424.41,-84.91C424.41,-84.91 424.41,-103.79 424.41,-103.79"/>
<polygon fill="black" stroke="black" points="420.91,-103.79 424.41,-113.79 427.91,-103.79 420.91,-103.79"/>
</g>
<!-- KafkaProducerModule -->
<g id="node4" class="node">
<title>KafkaProducerModule</title>
<polygon fill="#8dd3c7" stroke="black" points="274.29,-84.8 271.29,-88.8 250.29,-88.8 247.29,-84.8 129.71,-84.8 129.71,-48.8 274.29,-48.8 274.29,-84.8"/>
<text text-anchor="middle" x="202" y="-62.6" font-family="Times,serif" font-size="14.00">KafkaProducerModule</text>
</g>
<!-- KafkaProducerModule&#45;&gt;AppModule -->
<g id="edge4" class="edge">
<title>KafkaProducerModule&#45;&gt;AppModule</title>
<path fill="none" stroke="black" d="M202,-84.82C202,-102.17 202,-125.8 202,-125.8 202,-125.8 395.16,-125.8 395.16,-125.8"/>
<polygon fill="black" stroke="black" points="395.16,-129.3 405.16,-125.8 395.16,-122.3 395.16,-129.3"/>
</g>
<!-- LogsModule -->
<g id="node5" class="node">
<title>LogsModule</title>
<polygon fill="#8dd3c7" stroke="black" points="111.55,-84.8 108.55,-88.8 87.55,-88.8 84.55,-84.8 24.45,-84.8 24.45,-48.8 111.55,-48.8 111.55,-84.8"/>
<text text-anchor="middle" x="68" y="-62.6" font-family="Times,serif" font-size="14.00">LogsModule</text>
</g>
<!-- LogsModule&#45;&gt;AppModule -->
<g id="edge5" class="edge">
<title>LogsModule&#45;&gt;AppModule</title>
<path fill="none" stroke="black" d="M68,-85.08C68,-106.12 68,-137.8 68,-137.8 68,-137.8 394.99,-137.8 394.99,-137.8"/>
<polygon fill="black" stroke="black" points="394.99,-141.3 404.99,-137.8 394.99,-134.3 394.99,-141.3"/>
</g>
<!-- AppService -->
<g id="node7" class="node">
<title>AppService</title>
<ellipse fill="#fdb462" stroke="black" cx="811" cy="-66.8" rx="56.75" ry="18"/>
<text text-anchor="middle" x="811" y="-62.6" font-family="Times,serif" font-size="14.00">AppService</text>
</g>
<!-- AppService&#45;&gt;AppModule -->
<g id="edge6" class="edge">
<title>AppService&#45;&gt;AppModule</title>
<path fill="none" stroke="black" d="M811,-85.08C811,-106.12 811,-137.8 811,-137.8 811,-137.8 498.76,-137.8 498.76,-137.8"/>
<polygon fill="black" stroke="black" points="498.76,-134.3 488.76,-137.8 498.76,-141.3 498.76,-134.3"/>
</g>
</g>
</svg>
