<?xml version="1.0" encoding="UTF-8" standalone="no"?>
<!DOCTYPE svg PUBLIC "-//W3C//DTD SVG 1.1//EN"
 "http://www.w3.org/Graphics/SVG/1.1/DTD/svg11.dtd">
<!-- Generated by graphviz version 5.0.0 (20220707.1540)
 -->
<!-- Title: dependencies Pages: 1 -->
<svg width="412pt" height="247pt"
 viewBox="0.00 0.00 412.00 246.80" xmlns="http://www.w3.org/2000/svg" xmlns:xlink="http://www.w3.org/1999/xlink">
<g id="graph0" class="graph" transform="scale(1 1) rotate(0) translate(4 242.8)">
<title>dependencies</title>
<polygon fill="white" stroke="transparent" points="-4,4 -4,-242.8 408,-242.8 408,4 -4,4"/>
<text text-anchor="middle" x="202" y="-8.2" font-family="sans-serif" font-size="14.00">dependencies</text>
<g id="clust1" class="cluster">
<title>cluster_LogsModule</title>
<polygon fill="none" stroke="black" stroke-dasharray="1,5" points="8,-32.8 8,-230.8 396,-230.8 396,-32.8 8,-32.8"/>
</g>
<g id="clust3" class="cluster">
<title>cluster_LogsModule_imports</title>
<polygon fill="none" stroke="black" points="296,-40.8 296,-92.8 388,-92.8 388,-40.8 296,-40.8"/>
</g>
<g id="clust6" class="cluster">
<title>cluster_LogsModule_providers</title>
<polygon fill="none" stroke="black" points="16,-40.8 16,-92.8 288,-92.8 288,-40.8 16,-40.8"/>
</g>
<g id="clust4" class="cluster">
<title>cluster_LogsModule_exports</title>
<polygon fill="none" stroke="black" points="167,-170.8 167,-222.8 273,-222.8 273,-170.8 167,-170.8"/>
</g>
<!-- DbModule -->
<g id="node1" class="node">
<title>DbModule</title>
<polygon fill="#8dd3c7" stroke="black" points="380.16,-84.8 377.16,-88.8 356.16,-88.8 353.16,-84.8 303.84,-84.8 303.84,-48.8 380.16,-48.8 380.16,-84.8"/>
<text text-anchor="middle" x="342" y="-62.6" font-family="Times,serif" font-size="14.00">DbModule</text>
</g>
<!-- LogsModule -->
<g id="node2" class="node">
<title>LogsModule</title>
<polygon fill="#8dd3c7" stroke="black" points="263.55,-149.8 260.55,-153.8 239.55,-153.8 236.55,-149.8 176.45,-149.8 176.45,-113.8 263.55,-113.8 263.55,-149.8"/>
<text text-anchor="middle" x="220" y="-127.6" font-family="Times,serif" font-size="14.00">LogsModule</text>
</g>
<!-- DbModule&#45;&gt;LogsModule -->
<g id="edge1" class="edge">
<title>DbModule&#45;&gt;LogsModule</title>
<path fill="none" stroke="black" d="M342,-84.91C342,-104.14 342,-131.8 342,-131.8 342,-131.8 273.7,-131.8 273.7,-131.8"/>
<polygon fill="black" stroke="black" points="273.7,-128.3 263.7,-131.8 273.7,-135.3 273.7,-128.3"/>
</g>
<!-- LogsService  -->
<g id="node3" class="node">
<title>LogsService </title>
<polygon fill="#fb8072" stroke="black" points="264.98,-214.8 175.02,-214.8 175.02,-178.8 264.98,-178.8 264.98,-214.8"/>
<text text-anchor="middle" x="220" y="-192.6" font-family="Times,serif" font-size="14.00">LogsService </text>
</g>
<!-- LogsModule&#45;&gt;LogsService  -->
<g id="edge2" class="edge">
<title>LogsModule&#45;&gt;LogsService </title>
<path fill="none" stroke="black" stroke-dasharray="5,2" d="M220,-149.91C220,-149.91 220,-168.79 220,-168.79"/>
<polygon fill="black" stroke="black" points="216.5,-168.79 220,-178.79 223.5,-168.79 216.5,-168.79"/>
</g>
<!-- LogProvider -->
<g id="node4" class="node">
<title>LogProvider</title>
<ellipse fill="#fdb462" stroke="black" cx="220" cy="-66.8" rx="59.7" ry="18"/>
<text text-anchor="middle" x="220" y="-62.6" font-family="Times,serif" font-size="14.00">LogProvider</text>
</g>
<!-- LogProvider&#45;&gt;LogsModule -->
<g id="edge3" class="edge">
<title>LogProvider&#45;&gt;LogsModule</title>
<path fill="none" stroke="black" d="M220,-84.91C220,-84.91 220,-103.79 220,-103.79"/>
<polygon fill="black" stroke="black" points="216.5,-103.79 220,-113.79 223.5,-103.79 216.5,-103.79"/>
</g>
<!-- LogsService -->
<g id="node5" class="node">
<title>LogsService</title>
<ellipse fill="#fdb462" stroke="black" cx="83" cy="-66.8" rx="59.11" ry="18"/>
<text text-anchor="middle" x="83" y="-62.6" font-family="Times,serif" font-size="14.00">LogsService</text>
</g>
<!-- LogsService&#45;&gt;LogsModule -->
<g id="edge4" class="edge">
<title>LogsService&#45;&gt;LogsModule</title>
<path fill="none" stroke="black" d="M83,-84.91C83,-104.14 83,-131.8 83,-131.8 83,-131.8 166.28,-131.8 166.28,-131.8"/>
<polygon fill="black" stroke="black" points="166.28,-135.3 176.28,-131.8 166.28,-128.3 166.28,-135.3"/>
</g>
</g>
</svg>
