<?xml version="1.0" encoding="UTF-8" standalone="no"?>
<!DOCTYPE svg PUBLIC "-//W3C//DTD SVG 1.1//EN"
 "http://www.w3.org/Graphics/SVG/1.1/DTD/svg11.dtd">
<!-- Generated by graphviz version 5.0.0 (20220707.1540)
 -->
<!-- Title: dependencies Pages: 1 -->
<svg width="1524pt" height="337pt"
 viewBox="0.00 0.00 1524.00 336.80" xmlns="http://www.w3.org/2000/svg" xmlns:xlink="http://www.w3.org/1999/xlink">
<g id="graph0" class="graph" transform="scale(1 1) rotate(0) translate(4 332.8)">
<title>dependencies</title>
<polygon fill="white" stroke="transparent" points="-4,4 -4,-332.8 1520,-332.8 1520,4 -4,4"/>
<text text-anchor="middle" x="758" y="-8.2" font-family="sans-serif" font-size="14.00">dependencies</text>
<g id="clust1" class="cluster">
<title>cluster_AppConfigModule</title>
<polygon fill="none" stroke="black" stroke-dasharray="1,5" points="1310,-108.8 1310,-320.8 1508,-320.8 1508,-108.8 1310,-108.8"/>
</g>
<g id="clust4" class="cluster">
<title>cluster_AppConfigModule_exports</title>
<polygon fill="none" stroke="black" points="1328,-260.8 1328,-312.8 1468,-312.8 1468,-260.8 1328,-260.8"/>
</g>
<g id="clust6" class="cluster">
<title>cluster_AppConfigModule_providers</title>
<polygon fill="none" stroke="black" points="1318,-116.8 1318,-168.8 1500,-168.8 1500,-116.8 1318,-116.8"/>
</g>
<g id="clust7" class="cluster">
<title>cluster_AppModule</title>
<polygon fill="none" stroke="black" stroke-dasharray="1,5" points="432,-32.8 432,-312.8 896,-312.8 896,-32.8 432,-32.8"/>
</g>
<g id="clust9" class="cluster">
<title>cluster_AppModule_imports</title>
<polygon fill="none" stroke="black" points="452,-40.8 452,-236.8 738,-236.8 738,-40.8 452,-40.8"/>
</g>
<g id="clust12" class="cluster">
<title>cluster_AppModule_providers</title>
<polygon fill="none" stroke="black" points="746,-184.8 746,-236.8 876,-236.8 876,-184.8 746,-184.8"/>
</g>
<g id="clust25" class="cluster">
<title>cluster_KafkaConsumerModule</title>
<polygon fill="none" stroke="black" stroke-dasharray="1,5" points="8,-252.8 8,-320.8 424,-320.8 424,-252.8 8,-252.8"/>
</g>
<g id="clust28" class="cluster">
<title>cluster_KafkaConsumerModule_exports</title>
<polygon fill="none" stroke="black" points="246,-260.8 246,-312.8 416,-312.8 416,-260.8 246,-260.8"/>
</g>
<g id="clust30" class="cluster">
<title>cluster_KafkaConsumerModule_providers</title>
<polygon fill="none" stroke="black" points="16,-260.8 16,-312.8 238,-312.8 238,-260.8 16,-260.8"/>
</g>
<g id="clust31" class="cluster">
<title>cluster_KafkaProducerModule</title>
<polygon fill="none" stroke="black" stroke-dasharray="1,5" points="904,-176.8 904,-244.8 1302,-244.8 1302,-176.8 904,-176.8"/>
</g>
<g id="clust34" class="cluster">
<title>cluster_KafkaProducerModule_exports</title>
<polygon fill="none" stroke="black" points="1132,-184.8 1132,-236.8 1294,-236.8 1294,-184.8 1132,-184.8"/>
</g>
<g id="clust36" class="cluster">
<title>cluster_KafkaProducerModule_providers</title>
<polygon fill="none" stroke="black" points="912,-184.8 912,-236.8 1124,-236.8 1124,-184.8 912,-184.8"/>
</g>
<g id="clust37" class="cluster">
<title>cluster_LogsModule</title>
<polygon fill="none" stroke="black" stroke-dasharray="1,5" points="904,-32.8 904,-100.8 1406,-100.8 1406,-32.8 904,-32.8"/>
</g>
<g id="clust39" class="cluster">
<title>cluster_LogsModule_imports</title>
<polygon fill="none" stroke="black" points="1306,-40.8 1306,-92.8 1398,-92.8 1398,-40.8 1306,-40.8"/>
</g>
<g id="clust40" class="cluster">
<title>cluster_LogsModule_exports</title>
<polygon fill="none" stroke="black" points="1192,-40.8 1192,-92.8 1298,-92.8 1298,-40.8 1192,-40.8"/>
</g>
<g id="clust42" class="cluster">
<title>cluster_LogsModule_providers</title>
<polygon fill="none" stroke="black" points="912,-40.8 912,-92.8 1184,-92.8 1184,-40.8 912,-40.8"/>
</g>
<!-- AppConfigService  -->
<g id="node1" class="node">
<title>AppConfigService </title>
<polygon fill="#fb8072" stroke="black" points="1460.48,-304.8 1335.52,-304.8 1335.52,-268.8 1460.48,-268.8 1460.48,-304.8"/>
<text text-anchor="middle" x="1398" y="-282.6" font-family="Times,serif" font-size="14.00">AppConfigService </text>
</g>
<!-- AppConfigModule -->
<g id="node2" class="node">
<title>AppConfigModule</title>
<polygon fill="#8dd3c7" stroke="black" points="1459.05,-228.8 1456.05,-232.8 1435.05,-232.8 1432.05,-228.8 1336.95,-228.8 1336.95,-192.8 1459.05,-192.8 1459.05,-228.8"/>
<text text-anchor="middle" x="1398" y="-206.6" font-family="Times,serif" font-size="14.00">AppConfigModule</text>
</g>
<!-- AppConfigModule&#45;&gt;AppConfigService  -->
<g id="edge1" class="edge">
<title>AppConfigModule&#45;&gt;AppConfigService </title>
<path fill="none" stroke="black" stroke-dasharray="5,2" d="M1398,-228.81C1398,-228.81 1398,-258.65 1398,-258.65"/>
<polygon fill="black" stroke="black" points="1394.5,-258.65 1398,-268.65 1401.5,-258.65 1394.5,-258.65"/>
</g>
<!-- AppModule -->
<g id="node8" class="node">
<title>AppModule</title>
<polygon fill="#8dd3c7" stroke="black" points="790.66,-304.8 787.66,-308.8 766.66,-308.8 763.66,-304.8 707.34,-304.8 707.34,-268.8 790.66,-268.8 790.66,-304.8"/>
<text text-anchor="middle" x="749" y="-282.6" font-family="Times,serif" font-size="14.00">AppModule</text>
</g>
<!-- AppConfigModule&#45;&gt;AppModule -->
<g id="edge3" class="edge">
<title>AppConfigModule&#45;&gt;AppModule</title>
<path fill="none" stroke="black" d="M1336.69,-210.8C1327.8,-210.8 1321.59,-210.8 1321.59,-210.8 1321.59,-210.8 1321.59,-286.8 1321.59,-286.8 1321.59,-286.8 801.1,-286.8 801.1,-286.8"/>
<polygon fill="black" stroke="black" points="801.1,-283.3 791.1,-286.8 801.1,-290.3 801.1,-283.3"/>
</g>
<!-- AppConfigService -->
<g id="node3" class="node">
<title>AppConfigService</title>
<ellipse fill="#fdb462" stroke="black" cx="1409" cy="-142.8" rx="83.4" ry="18"/>
<text text-anchor="middle" x="1409" y="-138.6" font-family="Times,serif" font-size="14.00">AppConfigService</text>
</g>
<!-- AppConfigService&#45;&gt;AppConfigModule -->
<g id="edge2" class="edge">
<title>AppConfigService&#45;&gt;AppConfigModule</title>
<path fill="none" stroke="black" d="M1398,-160.67C1398,-160.67 1398,-182.34 1398,-182.34"/>
<polygon fill="black" stroke="black" points="1394.5,-182.34 1398,-192.34 1401.5,-182.34 1394.5,-182.34"/>
</g>
<!-- KafkaClientModule -->
<g id="node4" class="node">
<title>KafkaClientModule</title>
<polygon fill="#8dd3c7" stroke="black" points="587.97,-84.8 584.97,-88.8 563.97,-88.8 560.97,-84.8 460.03,-84.8 460.03,-48.8 587.97,-48.8 587.97,-84.8"/>
<text text-anchor="middle" x="524" y="-62.6" font-family="Times,serif" font-size="14.00">KafkaClientModule</text>
</g>
<!-- KafkaConsumerModule -->
<g id="node5" class="node">
<title>KafkaConsumerModule</title>
<polygon fill="#8dd3c7" stroke="black" points="619.8,-228.8 616.8,-232.8 595.8,-232.8 592.8,-228.8 468.2,-228.8 468.2,-192.8 619.8,-192.8 619.8,-228.8"/>
<text text-anchor="middle" x="544" y="-206.6" font-family="Times,serif" font-size="14.00">KafkaConsumerModule</text>
</g>
<!-- KafkaClientModule&#45;&gt;KafkaConsumerModule -->
<g id="edge9" class="edge">
<title>KafkaClientModule&#45;&gt;KafkaConsumerModule</title>
<path fill="none" stroke="black" d="M474.1,-85.04C474.1,-85.04 474.1,-182.71 474.1,-182.71"/>
<polygon fill="black" stroke="black" points="470.6,-182.71 474.1,-192.71 477.6,-182.71 470.6,-182.71"/>
</g>
<!-- KafkaProducerModule -->
<g id="node6" class="node">
<title>KafkaProducerModule</title>
<polygon fill="#8dd3c7" stroke="black" points="624.29,-160.8 621.29,-164.8 600.29,-164.8 597.29,-160.8 479.71,-160.8 479.71,-124.8 624.29,-124.8 624.29,-160.8"/>
<text text-anchor="middle" x="552" y="-138.6" font-family="Times,serif" font-size="14.00">KafkaProducerModule</text>
</g>
<!-- KafkaClientModule&#45;&gt;KafkaProducerModule -->
<g id="edge14" class="edge">
<title>KafkaClientModule&#45;&gt;KafkaProducerModule</title>
<path fill="none" stroke="black" d="M533.92,-84.81C533.92,-84.81 533.92,-114.65 533.92,-114.65"/>
<polygon fill="black" stroke="black" points="530.42,-114.65 533.92,-124.65 537.42,-114.65 530.42,-114.65"/>
</g>
<!-- KafkaClientModule&#45;&gt;AppModule -->
<g id="edge4" class="edge">
<title>KafkaClientModule&#45;&gt;AppModule</title>
<path fill="none" stroke="black" d="M588.25,-60.8C652.58,-60.8 742.08,-60.8 742.08,-60.8 742.08,-60.8 742.08,-258.69 742.08,-258.69"/>
<polygon fill="black" stroke="black" points="738.58,-258.69 742.08,-268.69 745.58,-258.69 738.58,-258.69"/>
</g>
<!-- KafkaConsumerModule&#45;&gt;AppModule -->
<g id="edge5" class="edge">
<title>KafkaConsumerModule&#45;&gt;AppModule</title>
<path fill="none" stroke="black" d="M619.87,-216.8C665.46,-216.8 714.7,-216.8 714.7,-216.8 714.7,-216.8 714.7,-258.77 714.7,-258.77"/>
<polygon fill="black" stroke="black" points="711.2,-258.77 714.7,-268.77 718.2,-258.77 711.2,-258.77"/>
</g>
<!-- KafkaConsumerService  -->
<g id="node10" class="node">
<title>KafkaConsumerService </title>
<polygon fill="#fb8072" stroke="black" points="407.73,-304.8 254.27,-304.8 254.27,-268.8 407.73,-268.8 407.73,-304.8"/>
<text text-anchor="middle" x="331" y="-282.6" font-family="Times,serif" font-size="14.00">KafkaConsumerService </text>
</g>
<!-- KafkaConsumerModule&#45;&gt;KafkaConsumerService  -->
<g id="edge12" class="edge">
<title>KafkaConsumerModule&#45;&gt;KafkaConsumerService </title>
<path fill="none" stroke="black" stroke-dasharray="5,2" d="M544,-229C544,-253.16 544,-292.8 544,-292.8 544,-292.8 417.9,-292.8 417.9,-292.8"/>
<polygon fill="black" stroke="black" points="417.9,-289.3 407.9,-292.8 417.9,-296.3 417.9,-289.3"/>
</g>
<!-- KafkaProducerModule&#45;&gt;KafkaConsumerModule -->
<g id="edge10" class="edge">
<title>KafkaProducerModule&#45;&gt;KafkaConsumerModule</title>
<path fill="none" stroke="black" d="M514.8,-161.02C514.8,-161.02 514.8,-182.53 514.8,-182.53"/>
<polygon fill="black" stroke="black" points="511.3,-182.53 514.8,-192.53 518.3,-182.53 511.3,-182.53"/>
</g>
<!-- KafkaProducerModule&#45;&gt;AppModule -->
<g id="edge6" class="edge">
<title>KafkaProducerModule&#45;&gt;AppModule</title>
<path fill="none" stroke="black" d="M624.19,-142.8C629.7,-142.8 633.18,-142.8 633.18,-142.8 633.18,-142.8 633.18,-280.8 633.18,-280.8 633.18,-280.8 697.19,-280.8 697.19,-280.8"/>
<polygon fill="black" stroke="black" points="697.19,-284.3 707.19,-280.8 697.19,-277.3 697.19,-284.3"/>
</g>
<!-- KafkaProducerService  -->
<g id="node12" class="node">
<title>KafkaProducerService </title>
<polygon fill="#fb8072" stroke="black" points="1286.22,-228.8 1139.78,-228.8 1139.78,-192.8 1286.22,-192.8 1286.22,-228.8"/>
<text text-anchor="middle" x="1213" y="-206.6" font-family="Times,serif" font-size="14.00">KafkaProducerService </text>
</g>
<!-- KafkaProducerModule&#45;&gt;KafkaProducerService  -->
<g id="edge15" class="edge">
<title>KafkaProducerModule&#45;&gt;KafkaProducerService </title>
<path fill="none" stroke="black" stroke-dasharray="5,2" d="M549.75,-161C549.75,-166.83 549.75,-171.8 549.75,-171.8 549.75,-171.8 1157.87,-171.8 1157.87,-171.8 1157.87,-171.8 1157.87,-182.67 1157.87,-182.67"/>
<polygon fill="black" stroke="black" points="1154.37,-182.67 1157.87,-192.67 1161.37,-182.67 1154.37,-182.67"/>
</g>
<!-- LogsModule -->
<g id="node7" class="node">
<title>LogsModule</title>
<polygon fill="#8dd3c7" stroke="black" points="729.55,-160.8 726.55,-164.8 705.55,-164.8 702.55,-160.8 642.45,-160.8 642.45,-124.8 729.55,-124.8 729.55,-160.8"/>
<text text-anchor="middle" x="686" y="-138.6" font-family="Times,serif" font-size="14.00">LogsModule</text>
</g>
<!-- LogsModule&#45;&gt;KafkaConsumerModule -->
<g id="edge11" class="edge">
<title>LogsModule&#45;&gt;KafkaConsumerModule</title>
<path fill="none" stroke="black" d="M674.7,-161.07C674.7,-179.36 674.7,-204.8 674.7,-204.8 674.7,-204.8 630.03,-204.8 630.03,-204.8"/>
<polygon fill="black" stroke="black" points="630.03,-201.3 620.03,-204.8 630.03,-208.3 630.03,-201.3"/>
</g>
<!-- LogsModule&#45;&gt;AppModule -->
<g id="edge7" class="edge">
<title>LogsModule&#45;&gt;AppModule</title>
<path fill="none" stroke="black" d="M722.24,-161.04C722.24,-161.04 722.24,-258.71 722.24,-258.71"/>
<polygon fill="black" stroke="black" points="718.74,-258.71 722.24,-268.71 725.74,-258.71 718.74,-258.71"/>
</g>
<!-- LogsService  -->
<g id="node15" class="node">
<title>LogsService </title>
<polygon fill="#fb8072" stroke="black" points="1289.98,-84.8 1200.02,-84.8 1200.02,-48.8 1289.98,-48.8 1289.98,-84.8"/>
<text text-anchor="middle" x="1245" y="-62.6" font-family="Times,serif" font-size="14.00">LogsService </text>
</g>
<!-- LogsModule&#45;&gt;LogsService  -->
<g id="edge18" class="edge">
<title>LogsModule&#45;&gt;LogsService </title>
<path fill="none" stroke="black" stroke-dasharray="5,2" d="M729.72,-142.8C861.07,-142.8 1243.18,-142.8 1243.18,-142.8 1243.18,-142.8 1243.18,-94.81 1243.18,-94.81"/>
<polygon fill="black" stroke="black" points="1246.68,-94.81 1243.18,-84.81 1239.68,-94.81 1246.68,-94.81"/>
</g>
<!-- AppService -->
<g id="node9" class="node">
<title>AppService</title>
<ellipse fill="#fdb462" stroke="black" cx="811" cy="-210.8" rx="56.75" ry="18"/>
<text text-anchor="middle" x="811" y="-206.6" font-family="Times,serif" font-size="14.00">AppService</text>
</g>
<!-- AppService&#45;&gt;AppModule -->
<g id="edge8" class="edge">
<title>AppService&#45;&gt;AppModule</title>
<path fill="none" stroke="black" d="M772.6,-224.04C772.6,-224.04 772.6,-258.59 772.6,-258.59"/>
<polygon fill="black" stroke="black" points="769.1,-258.59 772.6,-268.59 776.1,-258.59 769.1,-258.59"/>
</g>
<!-- KafkaConsumerService -->
<g id="node11" class="node">
<title>KafkaConsumerService</title>
<ellipse fill="#fdb462" stroke="black" cx="127" cy="-286.8" rx="103.06" ry="18"/>
<text text-anchor="middle" x="127" y="-282.6" font-family="Times,serif" font-size="14.00">KafkaConsumerService</text>
</g>
<!-- KafkaConsumerService&#45;&gt;KafkaConsumerModule -->
<g id="edge13" class="edge">
<title>KafkaConsumerService&#45;&gt;KafkaConsumerModule</title>
<path fill="none" stroke="black" d="M127,-268.79C127,-246.31 127,-210.8 127,-210.8 127,-210.8 458,-210.8 458,-210.8"/>
<polygon fill="black" stroke="black" points="458,-214.3 468,-210.8 458,-207.3 458,-214.3"/>
</g>
<!-- KafkaProducerService -->
<g id="node13" class="node">
<title>KafkaProducerService</title>
<ellipse fill="#fdb462" stroke="black" cx="1018" cy="-210.8" rx="98.39" ry="18"/>
<text text-anchor="middle" x="1018" y="-206.6" font-family="Times,serif" font-size="14.00">KafkaProducerService</text>
</g>
<!-- KafkaProducerService&#45;&gt;KafkaProducerModule -->
<g id="edge16" class="edge">
<title>KafkaProducerService&#45;&gt;KafkaProducerModule</title>
<path fill="none" stroke="black" d="M979,-194.19C979,-188.16 979,-182.8 979,-182.8 979,-182.8 584.7,-182.8 584.7,-182.8 584.7,-182.8 584.7,-170.93 584.7,-170.93"/>
<polygon fill="black" stroke="black" points="588.2,-170.93 584.7,-160.93 581.2,-170.93 588.2,-170.93"/>
</g>
<!-- DbModule -->
<g id="node14" class="node">
<title>DbModule</title>
<polygon fill="#8dd3c7" stroke="black" points="1390.16,-84.8 1387.16,-88.8 1366.16,-88.8 1363.16,-84.8 1313.84,-84.8 1313.84,-48.8 1390.16,-48.8 1390.16,-84.8"/>
<text text-anchor="middle" x="1352" y="-62.6" font-family="Times,serif" font-size="14.00">DbModule</text>
</g>
<!-- DbModule&#45;&gt;LogsModule -->
<g id="edge17" class="edge">
<title>DbModule&#45;&gt;LogsModule</title>
<path fill="none" stroke="black" d="M1317.63,-84.83C1317.63,-109.78 1317.63,-151.8 1317.63,-151.8 1317.63,-151.8 739.66,-151.8 739.66,-151.8"/>
<polygon fill="black" stroke="black" points="739.66,-148.3 729.66,-151.8 739.66,-155.3 739.66,-148.3"/>
</g>
<!-- LogProvider -->
<g id="node16" class="node">
<title>LogProvider</title>
<ellipse fill="#fdb462" stroke="black" cx="1116" cy="-66.8" rx="59.7" ry="18"/>
<text text-anchor="middle" x="1116" y="-62.6" font-family="Times,serif" font-size="14.00">LogProvider</text>
</g>
<!-- LogProvider&#45;&gt;LogsModule -->
<g id="edge19" class="edge">
<title>LogProvider&#45;&gt;LogsModule</title>
<path fill="none" stroke="black" d="M1086.3,-82.68C1086.3,-102.49 1086.3,-133.8 1086.3,-133.8 1086.3,-133.8 739.6,-133.8 739.6,-133.8"/>
<polygon fill="black" stroke="black" points="739.6,-130.3 729.6,-133.8 739.6,-137.3 739.6,-130.3"/>
</g>
<!-- LogsService -->
<g id="node17" class="node">
<title>LogsService</title>
<ellipse fill="#fdb462" stroke="black" cx="979" cy="-66.8" rx="59.11" ry="18"/>
<text text-anchor="middle" x="979" y="-62.6" font-family="Times,serif" font-size="14.00">LogsService</text>
</g>
<!-- LogsService&#45;&gt;LogsModule -->
<g id="edge20" class="edge">
<title>LogsService&#45;&gt;LogsModule</title>
<path fill="none" stroke="black" d="M922.85,-72.8C837.78,-72.8 686,-72.8 686,-72.8 686,-72.8 686,-114.77 686,-114.77"/>
<polygon fill="black" stroke="black" points="682.5,-114.77 686,-124.77 689.5,-114.77 682.5,-114.77"/>
</g>
</g>
</svg>
